<svg width="443" height="444" xmlns="http://www.w3.org/2000/svg">

 <g>
  <title>background</title>
  <rect fill="none" id="canvas_background" height="446" width="445" y="-1" x="-1"/>
 </g>
 <g>
  <title>Layer 1</title>
  <path id="svg_2" fill="#1e1e1e" d="m10,221c23.1,0 46.2,0 70,0c0.99,7.92 0.99,7.92 2,16c5.85026,30.34983 23.16225,55.74526 48.36719,73.39453c13.76576,9.31508 28.88304,16.33496 44.75781,21.16797c0.63801,0.19811 1.27601,0.39623 1.93335,0.60034c13.02917,3.82765 25.65211,5.31689 39.18774,5.17334c2.38446,-0.02374 4.7678,-0.02051 7.15235,-0.01391c38.88768,-0.06528 76.59553,-14.36689 104.53906,-41.63477c20.8772,-21.23421 28.862,-45.284 33.0625,-74.6875c23.1,0 46.2,0 70,0c0,4.95 0,9.9 0,15c-5.1219,1.12558 -10.2448,2.24642 -15.36865,3.36304c-1.74019,0.37991 -3.4801,0.76107 -5.21973,1.14355c-2.51148,0.55195 -5.02394,1.09927 -7.53662,1.64575c-0.76804,0.16983 -1.53608,0.33966 -2.32739,0.51464c-4.83704,1.0462 -9.6286,1.78402 -14.54761,2.33302c-0.19336,0.72445 -0.38672,1.44891 -0.58594,2.19531c-0.39058,1.4502 -0.39058,1.4502 -0.78906,2.92969c-0.40605,1.5082 -0.40605,1.5082 -0.82031,3.04688c-0.80469,2.82812 -0.80469,2.82812 -2.05469,6.20312c-0.91274,3.19459 -0.86342,4.48718 0.25,7.625c2.09365,1.94621 4.0791,3.58271 6.375,5.25c1.27941,0.96513 2.55805,1.93129 3.83594,2.89844c0.63905,0.47792 1.2781,0.95584 1.93652,1.44824c2.67517,2.02647 5.26201,4.14453 7.85254,6.27832c0.8727,0.71801 1.74539,1.43602 2.64453,2.17578c2.79096,2.3096 5.57862,4.62267 8.35547,6.94922c-6.56073,10.40174 -13.28754,20.69586 -20,31c-8.81939,-0.62853 -17.21139,-2.89955 -25.75,-5.0625c-2.9515,-0.74757 -5.90478,-1.48743 -8.85937,-2.22266c-0.6678,-0.17185 -1.33559,-0.3437 -2.02363,-0.52076c-3.51311,-0.87341 -6.75058,-1.63161 -10.367,-1.19408c-1.79065,1.05414 -1.79065,1.05414 -3.26172,2.625c-0.84208,0.81211 -0.84208,0.81211 -1.70117,1.64063c-0.56912,0.57234 -1.13824,1.14468 -1.72461,1.73437c-6.08784,6 -6.08784,6 -8.3125,6c0.54527,1.61842 0.54527,1.61842 1.10156,3.26953c2.81168,8.37185 5.58225,16.75656 8.27344,25.16797c0.26249,0.80993 0.52497,1.61987 0.79541,2.45435c0.99567,3.13427 1.82959,5.79833 1.82959,9.10815c-12,6 -24,12 -36,18c-0.84562,-0.78504 -1.69125,-1.57008 -2.5625,-2.37891c-8.13141,-7.56515 -8.13141,-7.56515 -16.48437,-14.88281c-1.5037,-1.33828 -2.93999,-2.75256 -4.34375,-4.19531c-4.24446,-4.50743 -4.24446,-4.50743 -9.71875,-6.99609c-2.40959,0.23552 -4.55601,0.80232 -6.89063,1.45312c-1.9909,0.39299 -3.98197,0.78536 -5.97583,1.16309c-3.0156,0.57722 -6.01909,1.20739 -9.02417,1.83691c-0.32871,1.36705 -0.32871,1.36705 -0.66406,2.76172c-2.01068,8.25254 -4.19362,16.44486 -6.52344,24.61328c-0.26184,0.92128 -0.52368,1.84255 -0.79346,2.79175c-0.24734,0.86021 -0.49467,1.72041 -0.74951,2.60669c-0.22067,0.76747 -0.44134,1.53495 -0.6687,2.32568c-0.60083,1.90088 -0.60083,1.90088 -1.60083,3.90088c-13.86,0 -27.72,0 -42,0c-6.9627,-22.04855 -6.9627,-22.04855 -8.875,-29.0625c-0.21141,-0.75604 -0.42281,-1.51207 -0.64062,-2.29102c-1.48438,-5.38326 -1.48438,-5.38326 -1.48438,-7.64648c-3.06071,-0.67507 -6.12382,-1.33855 -9.1875,-2c-0.86432,-0.19078 -1.72863,-0.38156 -2.61914,-0.57812c-0.84111,-0.18047 -1.68223,-0.36094 -2.54883,-0.54688c-1.15472,-0.25137 -1.15472,-0.25137 -2.33276,-0.50781c-4.83956,-0.84878 -4.83956,-0.84878 -9.23364,0.91113c-0.60329,0.59394 -1.20657,1.18787 -1.82813,1.79981c-1.02783,0.99193 -1.02783,0.99193 -2.07642,2.0039c-0.71728,0.71543 -1.43456,1.43086 -2.17358,2.16797c-1.50852,1.46416 -3.01764,2.92769 -4.52734,4.39063c-0.74879,0.73283 -1.49757,1.46566 -2.26905,2.2207c-3.20066,3.10634 -6.47706,6.1265 -9.76611,9.13867c-1.0639,0.97906 -2.12771,1.95822 -3.19141,2.9375c-0.74121,0.68062 -1.48242,1.36125 -2.24609,2.0625c-6.21596,-2.39319 -12.16311,-5.35753 -18.13965,-8.28491c-1.41059,-0.68686 -2.82471,-1.36653 -4.24219,-2.03906c-2.0534,-0.97516 -4.09417,-1.9732 -6.13378,-2.97681c-0.63537,-0.29603 -1.27074,-0.59205 -1.92536,-0.89705c-2.77634,-1.39422 -4.33156,-2.26435 -5.56317,-5.17644c0.00488,-3.08966 0.60296,-5.4061 1.58618,-8.33667c0.53271,-1.62035 0.53271,-1.62035 1.07617,-3.27343c0.38092,-1.11891 0.76184,-2.23782 1.1543,-3.39063c1.08594,-3.26731 2.16957,-6.53538 3.25244,-9.80371c0.55252,-1.66707 1.11003,-3.33252 1.67871,-4.99414c1.17593,-3.65338 1.73716,-6.22924 0.25635,-9.82715c-1.95806,-2.18534 -3.79027,-3.98949 -6,-5.875c-0.54012,-0.51047 -1.08023,-1.02094 -1.63672,-1.54687c-3.26901,-2.81944 -4.84472,-3.56832 -9.28515,-3.65235c-1.70248,0.3083 -3.39452,0.67553 -5.07813,1.07422c-1.79921,0.42201 -1.79921,0.42201 -3.63477,0.85254c-4.2182,1.02008 -8.41703,2.1109 -12.61523,3.20996c-2.85765,0.74778 -5.71719,1.48756 -8.57812,2.22266c-1.25716,0.32879 -2.51432,0.65758 -3.80958,0.99633c-5.50767,1.17696 -5.50767,1.17696 -8.3623,0.71851c-1.75757,-1.70898 -1.75757,-1.70898 -3.33984,-4.09375c-0.58846,-0.86625 -1.17692,-1.7325 -1.78321,-2.625c-0.59877,-0.91781 -1.19754,-1.83562 -1.81445,-2.78125c-1.19539,-1.78207 -2.39199,-3.56333 -3.58984,-5.34375c-0.57605,-0.86883 -1.1521,-1.73766 -1.74561,-2.63281c-2.09203,-3.05673 -4.34152,-5.96437 -6.66284,-8.84961c-1.06421,-1.67383 -1.06421,-1.67383 -1.06421,-4.67383c1.83594,-1.72656 1.83594,-1.72656 4.375,-3.625c4.5498,-3.50034 8.80659,-7.18521 13.01563,-11.08594c2.60937,-2.28906 2.60937,-2.28906 5.71875,-4.57812c2.85159,-2.10613 5.45908,-4.13063 7.89062,-6.71094c0.36801,-3.68013 0.1488,-4.69235 -1,-8c-0.53425,-2.3303 -1.05432,-4.66388 -1.5625,-7c-0.47522,-2.00094 -0.95305,-4.00127 -1.4375,-6c-1.24137,-0.11602 -2.48273,-0.23203 -3.76172,-0.35156c-5.76306,-0.64222 -11.3841,-1.81292 -17.05078,-3.02344c-1.05574,-0.2226 -2.11148,-0.44521 -3.19922,-0.67456c-7.04154,-1.49796 -14.0268,-3.11338 -20.98828,-4.95044c0,-4.95 0,-9.9 0,-15z"/>
  <path id="svg_3" fill="#990b2c" d="m281,48.754902c34.98,0 69.96,0 106,0c0,4.95 0,9.9 0,15c-2.7225,0.61875 -2.7225,0.61875 -5.5,1.25c-9.87638,2.48652 -17.88758,6.34288 -23.5,15.125c-7.45477,13.39898 -11.82838,28.5287 -16.77243,42.97574c-1.67682,4.89939 -3.36207,9.79586 -5.04701,14.69246c-0.85085,2.47266 -1.70133,4.94544 -2.55142,7.41836c-3.65507,10.62888 -7.34815,21.2441 -11.06664,31.85094c-0.28106,0.80216 -0.56211,1.60432 -0.85168,2.43079c-4.21334,12.02251 -8.4565,24.03443 -12.70371,36.04501c-3.54062,10.01579 -7.04451,20.04367 -10.50711,30.0867c-0.39735,1.15202 -0.79471,2.30404 -1.2041,3.49097c-2.47527,7.19724 -4.8989,14.41034 -7.2959,21.63403c-5.61,0 -11.22,0 -17,0c-0.73605,-2.0148 -1.47211,-4.02961 -2.23047,-6.10547c-0.73127,-1.99936 -1.46291,-3.99859 -2.19458,-5.9978c-0.49973,-1.36607 -0.9991,-2.73228 -1.49805,-4.09863c-0.48464,-1.32704 -0.96984,-2.65387 -1.45559,-3.9805c-0.48567,-1.32687 -0.96994,-2.65424 -1.45282,-3.98212c-1.16127,-3.1754 -2.36459,-6.31386 -3.64749,-9.44339c-5.09181,-12.43407 -3.28501,-19.33653 1.0415,-31.76709c0.46123,-1.35298 0.92184,-2.70617 1.38184,-4.05957c2.6992,-7.89211 5.56359,-15.70802 8.6604,-23.45313c2.15595,-5.4079 4.04315,-10.87102 5.85424,-16.40283c2.52889,-7.7183 5.15181,-15.40337 7.79102,-23.08447c0.35199,-1.02502 0.35199,-1.02502 0.71109,-2.07074c3.81088,-11.08747 7.71167,-22.1406 11.69028,-33.16901c1.90468,-5.28889 3.78483,-10.5853 5.60254,-15.90478c0.32428,-0.94722 0.64856,-1.89444 0.98266,-2.87036c1.13036,-3.86463 1.32545,-6.60575 0.76343,-10.61011c-2.12861,-3.8315 -4.62054,-5.79323 -8.71875,-7.375c-5.00233,-1.3705 -10.14939,-1.93723 -15.28125,-2.625c0,-4.95 0,-9.9 0,-15z"/>
  <path id="svg_4" fill="#990b2c" d="m54,49c34.98,0 69.96,0 106,0c0,4.95 0,9.9 0,15c-1.22977,0.23074 -2.45953,0.46148 -3.72656,0.69922c-1.63301,0.32848 -3.26581,0.65796 -4.89844,0.98828c-1.21236,0.22333 -1.21236,0.22333 -2.44922,0.45117c-5.58291,1.15744 -9.2728,2.35126 -12.92578,6.86133c-2.05721,8.1221 1.79879,16.36826 4.5625,23.875c0.46287,1.29234 0.92419,2.58524 1.38403,3.87866c0.91599,2.57018 1.83978,5.1373 2.77124,7.70191c1.6962,4.68876 3.33401,9.39683 4.96973,14.10693c0.55919,1.5966 1.11908,3.19296 1.67969,4.78906c0.27038,0.7699 0.54076,1.53979 0.81933,2.33301c0.26845,0.76409 0.5369,1.52818 0.81348,2.31543c3.0899,8.7949 6.17432,17.59143 9.20703,26.40625c0.39228,1.13977 0.78456,2.27955 1.18872,3.45386c0.82485,2.40048 1.64757,4.8017 2.46826,7.20361c2.19529,6.40171 4.43173,12.78365 6.75553,19.13997c1.21321,3.32078 2.41388,6.64605 3.61453,9.97139c0.58743,1.61534 1.18109,3.22844 1.78137,4.83905c5.68486,15.26246 6.36421,24.37482 -0.14044,39.79837c-0.50785,1.24122 -1.01411,2.48308 -1.5188,3.72559c-1.43147,3.49632 -2.88817,6.9808 -4.3562,10.46191c-0.36625,0.87511 -0.73251,1.75022 -1.10986,2.65186c-1.59345,3.80099 -3.22838,7.57549 -4.89014,11.34814c-4.95,0 -9.9,0 -15,0c-5.51852,-15.34618 -10.95952,-30.71224 -16.24756,-46.13965c-2.84861,-8.29152 -5.78043,-16.54986 -8.75244,-24.79785c-3.35777,-9.3348 -6.57894,-18.70438 -9.6875,-28.125c-5.68838,-17.22714 -11.66816,-34.35127 -17.68857,-51.46484c-1.80675,-5.13672 -3.5967,-10.27878 -5.37393,-15.42578c-0.77023,-2.20334 -1.541,-4.40649 -2.3125,-6.60938c-0.32106,-0.94271 -0.64211,-1.88542 -0.9729,-2.85669c-3.59345,-10.14946 -8.88344,-20.90837 -18.79663,-26.04956c-5.6049,-2.42527 -11.19742,-4.26825 -17.16797,-5.53125c0,-4.95 0,-9.9 0,-15z"/>
  <path id="svg_5" fill="#1e1e1e" d="m220,74c2.51036,3.04823 3.92296,5.96606 5.30469,9.65625c0.41894,1.10602 0.83789,2.21203 1.26953,3.35156c0.42926,1.15242 0.85851,2.30485 1.30078,3.49219c3.63421,9.67653 3.63421,9.67653 7.51953,19.25391c3.96608,9.41712 7.59613,18.9691 11.27979,28.49926c0.46052,1.19132 0.46052,1.19132 0.93036,2.4067c0.61162,1.58232 1.223,3.16475 1.8341,4.74728c1.7194,4.4451 3.46888,8.87618 5.25263,13.29598c0.56593,1.42227 0.56593,1.42227 1.14331,2.87329c0.66512,1.66943 1.34132,3.33452 2.03174,4.99365c4.22984,10.73674 1.38463,18.89814 -2.36646,29.49243c-0.42926,1.24717 -0.85852,2.49434 -1.30078,3.7793c-1.05421,3.0572 -2.12083,6.10946 -3.19922,9.1582c-2.58601,-3.12353 -3.99809,-6.1561 -5.42578,-9.94141c-0.46036,-1.20744 -0.92071,-2.41489 -1.39502,-3.65893c-0.24269,-0.6448 -0.48537,-1.28961 -0.73541,-1.95395c-1.30447,-3.46382 -2.63111,-6.91916 -3.95551,-10.3754c-0.27823,-0.72751 -0.55647,-1.45502 -0.84314,-2.20457c-3.04124,-7.93478 -6.17935,-15.83041 -9.33639,-23.71971c-0.62051,-1.55071 -1.24016,-3.10175 -1.85895,-4.65314c-0.86937,-2.17939 -1.74117,-4.3578 -2.61386,-6.53586c-0.25784,-0.64659 -0.51568,-1.29319 -0.78133,-1.95938c-1.23359,-3.06801 -2.51548,-6.06965 -4.05461,-8.99765c-0.20867,0.55196 -0.41733,1.10392 -0.63232,1.67261c-5.73848,15.13602 -11.6543,30.20122 -17.6402,45.24087c-0.8193,2.06014 -1.6368,4.121 -2.45252,6.18256c-1.15942,2.9284 -2.32563,5.854 -3.49371,8.77896c-0.35172,0.89161 -0.70345,1.78323 -1.06583,2.70186c-0.32825,0.81768 -0.65651,1.63537 -0.99472,2.47783c-0.42774,1.07483 -0.42774,1.07483 -0.86413,2.17138c-0.85657,1.77393 -0.85657,1.77393 -2.85657,3.77393c-2.57604,-6.16734 -4.95114,-12.41236 -7.25,-18.6875c-0.27022,-0.71213 -0.54044,-1.42425 -0.81885,-2.15796c-0.25056,-0.69424 -0.50112,-1.38848 -0.75928,-2.10376c-0.2259,-0.6119 -0.45181,-1.2238 -0.68457,-1.85425c-1.42929,-6.44256 -0.03112,-11.33512 2.40723,-17.20825c0.30296,-0.75721 0.60591,-1.51443 0.91805,-2.29458c0.98899,-2.46499 1.99443,-4.92291 2.99992,-7.3812c0.6938,-1.72174 1.38633,-3.444 2.07764,-5.16675c1.38616,-3.45139 2.77772,-6.90052 4.17382,-10.3479c2.56839,-6.35141 5.06742,-12.72923 7.56104,-19.11035c0.86424,-2.20066 1.72883,-4.40118 2.59375,-6.60156c1.80271,-4.59004 3.60164,-9.18155 5.39835,-13.77394c1.20556,-3.07991 2.41327,-6.15896 3.62136,-9.23787c0.58791,-1.49981 1.17488,-2.99999 1.76087,-4.50055c0.81294,-2.08146 1.62909,-4.16164 2.44598,-6.24155c0.46938,-1.19907 0.93876,-2.39814 1.42237,-3.63354c1.13232,-2.69849 1.13232,-2.69849 2.13232,-3.69849z"/>
 </g>
</svg>